<svg id="Capa_1" enable-background="new 0 0 512 512" height="512" viewBox="0 0 512 512" width="512" xmlns="http://www.w3.org/2000/svg" xmlns:xlink="http://www.w3.org/1999/xlink"><linearGradient id="SVGID_1_" gradientUnits="userSpaceOnUse" x1="276.711" x2="301.095" y1="299.528" y2="299.528"><stop offset="0" stop-color="#802129"/><stop offset=".3205" stop-color="#89232c"/><stop offset=".8515" stop-color="#a32a34"/><stop offset="1" stop-color="#ab2c37"/></linearGradient><linearGradient id="lg1"><stop offset="0" stop-color="#802129"/><stop offset=".176" stop-color="#90262f"/><stop offset=".5214" stop-color="#bb333e"/><stop offset="1" stop-color="#ff4757"/></linearGradient><linearGradient id="SVGID_2_" gradientTransform="matrix(-1 0 0 1 617.973 0)" gradientUnits="userSpaceOnUse" x1="466.127" x2="447.787" xlink:href="#lg1" y1="364.678" y2="396.443"/><linearGradient id="SVGID_3_" gradientTransform="matrix(-1 0 0 1 617.973 0)" gradientUnits="userSpaceOnUse" x1="430.776" x2="413.617" xlink:href="#lg1" y1="381.922" y2="411.643"/><linearGradient id="lg2"><stop offset="0" stop-color="#ab2c37"/><stop offset=".2494" stop-color="#bb313d"/><stop offset=".7362" stop-color="#e53f4d"/><stop offset="1" stop-color="#ff4757"/></linearGradient><linearGradient id="SVGID_4_" gradientTransform="matrix(-1 0 0 1 617.973 0)" gradientUnits="userSpaceOnUse" x1="391.122" x2="376.082" xlink:href="#lg2" y1="406.619" y2="432.669"/><linearGradient id="SVGID_5_" gradientTransform="matrix(-1 0 0 1 617.973 0)" gradientUnits="userSpaceOnUse" x1="354.947" x2="338.321" xlink:href="#lg2" y1="425.291" y2="454.088"/><linearGradient id="SVGID_6_" gradientTransform="matrix(-1 0 0 1 617.973 0)" gradientUnits="userSpaceOnUse" x1="542.27" x2="523.931" xlink:href="#lg2" y1="320.763" y2="352.528"/><linearGradient id="SVGID_7_" gradientTransform="matrix(-1 0 0 1 617.973 0)" gradientUnits="userSpaceOnUse" x1="506.92" x2="489.761" xlink:href="#lg2" y1="338.007" y2="367.728"/><linearGradient id="SVGID_8_" gradientTransform="matrix(-1 0 0 1 617.973 0)" gradientUnits="userSpaceOnUse" x1="467.266" x2="452.226" xlink:href="#lg2" y1="362.704" y2="388.754"/><linearGradient id="SVGID_9_" gradientTransform="matrix(-1 0 0 1 617.973 0)" gradientUnits="userSpaceOnUse" x1="431.091" x2="414.465" xlink:href="#lg2" y1="381.376" y2="410.173"/><linearGradient id="lg3"><stop offset="0" stop-color="#ab2c37"/><stop offset=".0732" stop-color="#b32f3a"/><stop offset=".4827" stop-color="#dc3c4a"/><stop offset=".8056" stop-color="#f64453"/><stop offset="1" stop-color="#ff4757"/></linearGradient><linearGradient id="SVGID_10_" gradientUnits="userSpaceOnUse" x1="235.559" x2="176.287" xlink:href="#lg3" y1="195.757" y2="195.757"/><linearGradient id="SVGID_11_" gradientUnits="userSpaceOnUse" x1="171.58" x2="153.24" xlink:href="#lg1" y1="215.247" y2="247.012"/><linearGradient id="SVGID_12_" gradientUnits="userSpaceOnUse" x1="145.261" x2="134.468" xlink:href="#lg1" y1="202.877" y2="221.57"/><linearGradient id="SVGID_13_" gradientUnits="userSpaceOnUse" x1="111.777" x2="107.232" xlink:href="#lg1" y1="197.919" y2="205.791"/><linearGradient id="SVGID_14_" gradientTransform="matrix(-1 0 0 1 617.973 0)" gradientUnits="userSpaceOnUse" x1="281.365" x2="263.025" xlink:href="#lg1" y1="258.018" y2="289.784"/><linearGradient id="SVGID_15_" gradientTransform="matrix(-1 0 0 1 617.973 0)" gradientUnits="userSpaceOnUse" x1="357.509" x2="339.169" xlink:href="#lg1" y1="214.103" y2="245.869"/><linearGradient id="SVGID_16_" gradientTransform="matrix(-1 0 0 1 617.973 0)" gradientUnits="userSpaceOnUse" x1="322.158" x2="304.999" xlink:href="#lg1" y1="231.347" y2="261.068"/><linearGradient id="SVGID_17_" gradientTransform="matrix(-1 0 0 1 617.973 0)" gradientUnits="userSpaceOnUse" x1="282.504" x2="267.464" xlink:href="#lg1" y1="256.044" y2="282.094"/><linearGradient id="SVGID_18_" gradientUnits="userSpaceOnUse" x1="388.413" x2="383.321" xlink:href="#lg1" y1="243.262" y2="252.08"/><linearGradient id="SVGID_19_" gradientUnits="userSpaceOnUse" x1="348.79" x2="337.935" xlink:href="#lg1" y1="248.159" y2="266.959"/><linearGradient id="SVGID_20_" gradientUnits="userSpaceOnUse" x1="283.611" x2="327.017" xlink:href="#lg3" y1="201.49" y2="201.49"/><linearGradient id="SVGID_21_" gradientUnits="userSpaceOnUse" x1="209.629" x2="248.139" xlink:href="#lg3" y1="134.368" y2="134.368"/><linearGradient id="lg4"><stop offset="0" stop-color="#ff4757"/><stop offset=".2506" stop-color="#ff5766"/><stop offset=".7179" stop-color="#ff717d"/><stop offset="1" stop-color="#ff7a85"/></linearGradient><linearGradient id="SVGID_22_" gradientUnits="userSpaceOnUse" x1="16.172" x2="478.093" xlink:href="#lg4" y1="42.926" y2="309.616"/><linearGradient id="SVGID_23_" gradientUnits="userSpaceOnUse" x1="432.486" x2="414.146" xlink:href="#lg1" y1="365.91" y2="397.675"/><linearGradient id="SVGID_24_" gradientUnits="userSpaceOnUse" x1="397.136" x2="379.976" xlink:href="#lg1" y1="383.154" y2="412.875"/><linearGradient id="SVGID_25_" gradientUnits="userSpaceOnUse" x1="357.482" x2="342.442" xlink:href="#lg1" y1="407.851" y2="433.901"/><linearGradient id="SVGID_26_" gradientUnits="userSpaceOnUse" x1="321.307" x2="304.681" xlink:href="#lg1" y1="426.523" y2="455.32"/><linearGradient id="SVGID_27_" gradientUnits="userSpaceOnUse" x1="16.173" x2="478.094" xlink:href="#lg4" y1="42.926" y2="309.616"/><linearGradient id="lg5"><stop offset="0" stop-color="#ab2c37"/><stop offset=".1574" stop-color="#b93944"/><stop offset="1" stop-color="#ff7a85"/></linearGradient><linearGradient id="SVGID_28_" gradientUnits="userSpaceOnUse" x1="317.765" x2="303.247" xlink:href="#lg5" y1="111.166" y2="86.019"/><linearGradient id="lg6"><stop offset="0" stop-color="#ab2c37"/><stop offset=".0732" stop-color="#b3343f"/><stop offset=".4827" stop-color="#dc5a65"/><stop offset=".8056" stop-color="#f6717c"/><stop offset="1" stop-color="#ff7a85"/></linearGradient><linearGradient id="SVGID_29_" gradientUnits="userSpaceOnUse" x1="420.373" x2="405.333" xlink:href="#lg6" y1="171.124" y2="145.074"/><linearGradient id="SVGID_30_" gradientUnits="userSpaceOnUse" x1="273.179" x2="262.847" xlink:href="#lg3" y1="72.01" y2="54.114"/><linearGradient id="SVGID_31_" gradientUnits="userSpaceOnUse" x1="242.721" x2="227.681" xlink:href="#lg6" y1="273.679" y2="247.63"/><linearGradient id="SVGID_32_" gradientUnits="userSpaceOnUse" x1="140.113" x2="125.594" xlink:href="#lg5" y1="213.721" y2="188.574"/><g><path d="m218.309 87.055-189.99 114.163 10.327 161.364c0 3.416 1.822 6.572 4.78 8.279l242.24 139.857c1.479.854 3.13 1.281 4.78 1.281 1.651 0 3.301-.427 4.78-1.281l173.348-100.083c2.958-1.707 4.78-4.863 4.78-8.279l10.327-159.475z" fill="url(#SVGID_1_)"/><g><g fill="#5e0f16"><path d="m134.931 277.139c-3.424-1.985-7.679.646-7.433 4.596l6.6 106.051c.361 5.805 3.602 11.046 8.634 13.963 3.424 1.985 7.678-.646 7.433-4.596l-6.6-106.051c-.362-5.805-3.602-11.045-8.634-13.963z"/><path d="m173.002 299.097c-3.424-1.985-7.678.646-7.433 4.596l6.6 106.051c.361 5.805 3.602 11.046 8.634 13.963 3.424 1.985 7.678-.646 7.433-4.596l-6.6-106.051c-.361-5.806-3.601-11.046-8.634-13.963z"/><path d="m211.074 321.055c-3.424-1.985-7.678.646-7.433 4.596l6.6 106.051c.361 5.805 3.602 11.046 8.634 13.963 3.424 1.985 7.678-.646 7.433-4.596l-6.6-106.051c-.361-5.806-3.602-11.046-8.634-13.963z"/><path d="m249.146 343.012c-3.424-1.985-7.679.646-7.433 4.596l6.6 106.051c.361 5.805 3.602 11.046 8.634 13.963 3.424 1.985 7.678-.646 7.433-4.596l-6.6-106.051c-.361-5.806-3.601-11.046-8.634-13.963z"/></g><g><path d="m134.362 276.908c-.039.31-.093.616-.072.946l6.6 106.051c.361 5.805 3.601 11.045 8.633 13.963.185.107.379.15.568.231-.43 3.396-4.223 5.469-7.36 3.65-5.032-2.917-8.272-8.157-8.634-13.963l-6.6-106.051c-.232-3.736 3.557-6.241 6.865-4.827z" fill="url(#SVGID_2_)"/><path d="m172.434 298.866c-.04.31-.093.616-.072.946l6.6 106.051c.361 5.805 3.601 11.046 8.633 13.963.185.107.379.151.568.231-.431 3.396-4.223 5.469-7.36 3.65-5.032-2.917-8.272-8.157-8.634-13.963l-6.6-106.051c-.232-3.736 3.556-6.241 6.865-4.827z" fill="url(#SVGID_3_)"/><path d="m210.506 320.823c-.039.31-.093.616-.072.946l6.6 106.051c.361 5.805 3.601 11.045 8.633 13.962.185.107.379.15.568.231-.43 3.396-4.223 5.469-7.36 3.65-5.032-2.917-8.272-8.157-8.634-13.963l-6.6-106.051c-.232-3.735 3.556-6.24 6.865-4.826z" fill="url(#SVGID_4_)"/><path d="m248.578 342.78c-.04.31-.093.616-.072.946l6.6 106.051c.361 5.805 3.601 11.045 8.633 13.962.185.107.379.15.568.231-.431 3.396-4.223 5.469-7.36 3.65-5.032-2.917-8.273-8.157-8.634-13.963l-6.6-106.051c-.232-3.734 3.556-6.24 6.865-4.826z" fill="url(#SVGID_5_)"/></g><path d="m58.787 233.224c-3.424-1.985-7.679.646-7.433 4.596l6.6 106.051c.361 5.805 3.602 11.046 8.634 13.963 3.424 1.985 7.679-.646 7.433-4.596l-6.6-106.051c-.362-5.805-3.602-11.045-8.634-13.963z" fill="#5e0f16"/><path d="m96.858 255.182c-3.424-1.985-7.678.646-7.433 4.596l6.6 106.051c.362 5.805 3.602 11.046 8.634 13.963 3.424 1.985 7.678-.646 7.433-4.596l-6.6-106.051c-.361-5.806-3.601-11.046-8.634-13.963z" fill="#5e0f16"/><g><path d="m58.218 232.993c-.04.31-.093.616-.072.946l6.6 106.051c.361 5.805 3.601 11.046 8.633 13.963.185.107.379.15.568.231-.43 3.396-4.222 5.469-7.36 3.65-5.032-2.917-8.273-8.157-8.634-13.963l-6.6-106.051c-.232-3.736 3.557-6.241 6.865-4.827z" fill="url(#SVGID_6_)"/><path d="m96.29 254.951c-.039.31-.093.615-.072.946l6.6 106.051c.361 5.805 3.601 11.046 8.633 13.963.185.107.379.15.568.231-.43 3.396-4.223 5.469-7.36 3.65-5.032-2.917-8.272-8.157-8.634-13.963l-6.6-106.051c-.232-3.736 3.556-6.242 6.865-4.827z" fill="url(#SVGID_7_)"/><path d="m134.362 276.908c-.04.31-.093.615-.073.946l6.6 106.051c.361 5.805 3.601 11.046 8.633 13.963.185.107.379.15.568.231-.43 3.396-4.222 5.469-7.36 3.65-5.032-2.917-8.273-8.157-8.634-13.963l-6.6-106.051c-.231-3.736 3.557-6.241 6.866-4.827z" fill="url(#SVGID_8_)"/><path d="m172.434 298.866c-.039.31-.093.616-.072.946l6.6 106.051c.361 5.805 3.601 11.046 8.633 13.963.185.107.379.15.568.231-.43 3.396-4.223 5.469-7.36 3.65-5.032-2.917-8.272-8.157-8.634-13.963l-6.6-106.051c-.232-3.736 3.556-6.242 6.865-4.827z" fill="url(#SVGID_9_)"/></g></g><path d="m48.279 172.317 172.248-96.844 240.129 138.639-164.745 101.929z" fill="url(#SVGID_10_)"/><g><g fill="#fff"><path d="m188.496 127.709c3.424-1.985 4.555 8.5 4.309 12.45l-3.477 98.196c-.361 5.805-3.602 11.046-8.634 13.963-3.424 1.985-7.678-.646-7.433-4.596l6.6-106.051c.363-5.805 3.603-11.045 8.635-13.962z"/><path d="m152.952 233.068 1.688-70.269c.246-3.95-.792-15.117-4.216-13.133-5.032 2.917-8.273 8.157-8.634 13.963l-3.781 60.766z"/><path d="m117.527 212.507 1.136-31.443c.246-3.95-2.887-11.426-6.311-9.441-5.032 2.917-8.272 8.157-8.634 13.963l-1.135 18.248z"/></g><g><path d="m189.064 127.477c.039.31.093.616.072.946l-6.6 106.051c-.361 5.805-3.601 11.046-8.633 13.963-.185.107-.379.15-.568.231.43 3.396 4.223 5.469 7.36 3.65 5.032-2.917 8.272-8.158 8.634-13.963l6.6-106.051c.232-3.736-3.556-6.241-6.865-4.827z" fill="url(#SVGID_11_)"/><path d="m152.952 233.068 4.904-78.806c.232-3.737-3.556-6.241-6.865-4.827.039.31.093.615.072.946l-4.901 78.747z" fill="url(#SVGID_12_)"/><path d="m117.527 212.507 2.258-36.288c.232-3.736-3.556-6.242-6.865-4.828.04.31.093.616.073.946l-2.255 36.229z" fill="url(#SVGID_13_)"/></g></g><g><path d="m319.692 170.48c-3.424-1.985-5.186 5.002-4.94 8.952l4.108 101.694c.362 5.805 3.602 11.045 8.634 13.963 3.424 1.985 7.678-.646 7.432-4.596l-6.6-106.051c-.361-5.805-3.602-11.045-8.634-13.962z" fill="#fff"/><path d="m366.398 206.4c-.362-5.805-3.602-11.046-8.634-13.963-3.423-1.985-4.947 5.293-4.701 9.242l2.383 77.527 14.909-9.224z" fill="#fff"/><g><path d="m319.124 170.248c-.039.31-.093.616-.072.946l6.6 106.051c.361 5.805 3.601 11.046 8.633 13.963.185.107.379.15.568.231-.43 3.396-4.223 5.469-7.36 3.65-5.032-2.917-8.272-8.157-8.634-13.963l-6.6-106.051c-.232-3.736 3.557-6.241 6.865-4.827z" fill="url(#SVGID_14_)"/></g><path d="m243.548 126.565c-3.424-1.985-5.032 8.227-4.786 12.177l6.53 94.064c.361 5.805 1.005 12.491 6.037 15.408l1.109.739c3.118 1.807 5.425.836 6.271-1.429.061-.163.095-.593.073-.946l-6.6-106.051c-.361-5.805-3.601-11.045-8.634-13.962z" fill="#fff"/><path d="m281.62 148.522c-3.424-1.985-5.895 5.475-5.649 9.425l5.547 100.8c.361 5.805 2.871 10.983 7.903 13.9 0 0 6.935.236 7.36-3.166.038-.307.093-.619.073-.946l-6.6-106.051c-.361-5.804-3.601-11.045-8.634-13.962z" fill="#fff"/><g><path d="m242.98 126.333c-.039.31-.093.616-.072.946l6.6 106.051c.361 5.805 3.601 11.046 8.633 13.963.185.107.379.15.568.231-.43 3.396-4.223 5.469-7.36 3.65-5.032-2.917-8.272-8.157-8.634-13.963l-6.6-106.051c-.232-3.736 3.557-6.241 6.865-4.827z" fill="url(#SVGID_15_)"/><path d="m281.052 148.291c-.04.31-.093.616-.072.946l6.6 106.051c.361 5.805 3.601 11.045 8.633 13.963.185.107.379.15.568.231-.431 3.396-4.223 5.469-7.36 3.65-5.032-2.917-8.272-8.157-8.634-13.963l-6.6-106.051c-.232-3.736 3.556-6.241 6.865-4.827z" fill="url(#SVGID_16_)"/><path d="m319.124 170.248c-.039.31-.093.616-.072.946l6.6 106.051c.361 5.805 3.601 11.045 8.633 13.962.185.107.379.15.568.231-.43 3.396-4.223 5.469-7.36 3.65-5.032-2.917-8.272-8.157-8.634-13.962l-6.6-106.051c-.232-3.736 3.556-6.241 6.865-4.827z" fill="url(#SVGID_17_)"/><path d="m404.47 228.495c-.361-5.805-3.602-11.046-8.634-13.963-3.424-1.985-5.34 2.672-5.095 6.622l.04 36.189 14.91-9.225z" fill="#fff"/><path d="m395.254 215.189c-.021-.331.033-.636.072-.946-3.309-1.414-7.097 1.091-6.865 4.828l2.378 38.215 6.773-4.191z" fill="url(#SVGID_18_)"/><path d="m357.124 193.152c-.021-.331.033-.636.072-.946-3.309-1.414-7.097 1.091-6.865 4.827l5.114 82.173 5.415-3.35 1.357-.84z" fill="url(#SVGID_19_)"/></g></g><g><path d="m213.874 49.599-193.641 110.22v31.487c0 3.705 1.977 7.128 5.185 8.981l262.761 151.705c1.604.926 3.395 1.389 5.185 1.389s3.581-.463 5.185-1.389l188.033-108.562c3.208-1.852 5.185-5.276 5.185-8.981v-31.487zm11.261 48.871 208.999 120.666-138.941 83.481-222.091-123.874 139.035-80.273c4.022-2.322 8.976-2.322 12.998 0z" fill="url(#SVGID_20_)"/><path d="m28.451 155.141 44.651 23.602 139.035-80.273c4.022-2.322 8.976-2.322 12.997 0l208.999 120.666 57.633-16.174-277.892-153.363z" fill="url(#SVGID_21_)"/><g><path d="m293.364 321.894c-1.791 0-3.581-.463-5.185-1.389l-262.427-151.513c-2.456-1.418-4.41-3.673-5.15-6.411-1.266-4.69.82-9.436 4.816-11.743l181.922-105.033c6.99-4.036 15.603-4.036 22.593 0l256.316 147.985c2.457 1.418 4.41 3.673 5.149 6.411 1.266 4.69-.82 9.436-4.816 11.743l-188.033 108.56c-1.604.927-3.394 1.39-5.185 1.39zm-242.02-162.075 242.021 139.731 167.292-96.587-235.522-135.98c-4.021-2.322-8.976-2.322-12.997 0z" fill="url(#SVGID_22_)"/></g></g><g><g fill="#5e0f16"><path d="m449.402 278.372c3.424-1.985 7.678.646 7.433 4.596l-6.6 106.051c-.361 5.805-3.602 11.046-8.634 13.963-3.424 1.985-7.678-.646-7.433-4.596l6.6-106.051c.362-5.806 3.602-11.046 8.634-13.963z"/><path d="m411.33 300.329c3.424-1.985 7.678.646 7.433 4.596l-6.6 106.051c-.361 5.805-3.602 11.046-8.634 13.963-3.424 1.985-7.678-.646-7.433-4.596l6.6-106.051c.362-5.806 3.602-11.046 8.634-13.963z"/><path d="m373.258 322.286c3.424-1.985 7.678.646 7.433 4.596l-6.6 106.051c-.361 5.805-3.602 11.046-8.634 13.963-3.424 1.985-7.678-.646-7.433-4.596l6.6-106.051c.362-5.805 3.602-11.045 8.634-13.963z"/><path d="m335.186 344.244c3.424-1.985 7.678.646 7.433 4.596l-6.6 106.051c-.361 5.805-3.602 11.046-8.634 13.963-3.424 1.985-7.678-.646-7.433-4.596l6.6-106.051c.362-5.806 3.602-11.046 8.634-13.963z"/></g><g><path d="m449.97 278.14c.039.31.093.616.072.946l-6.6 106.051c-.361 5.805-3.601 11.046-8.633 13.963-.185.107-.379.15-.568.231.43 3.396 4.223 5.469 7.36 3.65 5.032-2.917 8.272-8.157 8.634-13.963l6.6-106.051c.232-3.736-3.556-6.241-6.865-4.827z" fill="url(#SVGID_23_)"/><path d="m411.898 300.098c.04.31.093.616.072.946l-6.6 106.051c-.361 5.805-3.601 11.046-8.633 13.963-.185.107-.379.15-.568.231.43 3.396 4.222 5.469 7.36 3.65 5.032-2.917 8.272-8.157 8.634-13.963l6.6-106.051c.232-3.736-3.556-6.241-6.865-4.827z" fill="url(#SVGID_24_)"/><path d="m373.826 322.055c.039.31.093.615.072.946l-6.6 106.051c-.361 5.805-3.601 11.045-8.633 13.963-.185.107-.379.15-.568.231.43 3.396 4.223 5.469 7.36 3.65 5.032-2.917 8.272-8.157 8.634-13.962l6.6-106.051c.232-3.737-3.556-6.242-6.865-4.828z" fill="url(#SVGID_25_)"/><path d="m335.754 344.013c.04.31.093.616.073.946l-6.6 106.051c-.361 5.805-3.601 11.046-8.633 13.963-.185.107-.379.15-.568.231.43 3.396 4.222 5.469 7.36 3.65 5.032-2.917 8.272-8.157 8.634-13.963l6.6-106.051c.231-3.736-3.557-6.242-6.866-4.827z" fill="url(#SVGID_26_)"/></g></g><g><path d="m293.364 321.894c-1.791 0-3.581-.463-5.185-1.389l-262.427-151.513c-2.456-1.418-4.41-3.673-5.15-6.411-1.266-4.691.82-9.436 4.816-11.743l181.922-105.034c6.99-4.036 15.603-4.036 22.593 0l256.316 147.985c2.457 1.418 4.41 3.672 5.149 6.411 1.266 4.69-.82 9.436-4.816 11.743l-188.033 108.561c-1.604.927-3.394 1.39-5.185 1.39zm-242.02-162.075 242.021 139.731 167.292-96.587-235.522-135.98c-4.021-2.322-8.976-2.322-12.997 0z" fill="url(#SVGID_27_)"/></g><g><path d="m310.973 116.547 10.355-5.978c.744-6.477-.497-13.912-3.702-19.464-3.468-6.008-8.223-8.109-12.156-6.086l-10.696 6.147z" fill="url(#SVGID_28_)"/><path d="m299.771 110.079 11.202 6.467c.743-6.474-.499-13.906-3.703-19.456-4.783-8.284-12.017-9.183-16.158-2.01-1.367 2.367-2.176 5.342-2.543 8.531z" fill="#ab2c37"/><path d="m299.771 110.079 6.165 3.559c.409-3.563-.275-7.653-2.038-10.707-2.632-4.559-6.613-5.054-8.893-1.106-.752 1.303-1.198 2.94-1.399 4.695z" fill="#fff"/></g><g><path d="m412.949 175.41 10.355-5.978c.745-6.476-.497-13.912-3.702-19.464-3.468-6.008-8.223-8.109-12.156-6.086l-10.696 6.147z" fill="url(#SVGID_29_)"/><path d="m401.747 168.943 11.202 6.467c.743-6.474-.499-13.906-3.703-19.456-4.783-8.283-12.017-9.183-16.158-2.01-1.367 2.367-2.176 5.342-2.543 8.531z" fill="#ab2c37"/><path d="m401.747 168.943 6.165 3.559c.409-3.563-.275-7.653-2.038-10.707-2.632-4.559-6.613-5.054-8.893-1.106-.752 1.303-1.198 2.94-1.4 4.695z" fill="#fff"/></g><g><path d="m231.593 266.807c-3.374 0-6.546-2.075-7.784-5.426l-54.689-148.207c-1.402-3.797.142-8.051 3.652-10.066l177.652-102.005c2.198-1.261 4.847-1.449 7.202-.513 2.352.937 4.148 2.898 4.875 5.324l47.247 157.515c1.317 4.389-1.173 9.013-5.562 10.33-4.391 1.317-9.013-1.173-10.33-5.563l-44.24-147.495-162.502 93.305 52.262 141.631c1.586 4.298-.614 9.069-4.912 10.655-.947.35-1.917.515-2.871.515z" fill="#e9e5f6"/></g><g><path d="m216.635 102.019c-5.031 0-9.921-2.617-12.604-7.292-3.992-6.953-1.592-15.827 5.361-19.82l98.385-56.492c6.959-3.994 15.829-1.59 19.819 5.361 3.992 6.953 1.592 15.827-5.361 19.82l-98.385 56.492c-2.279 1.309-4.764 1.931-7.215 1.931z" fill="url(#SVGID_30_)"/></g><g><path d="m231.593 266.807c-3.374 0-6.546-2.075-7.784-5.426l-54.689-148.207c-1.402-3.797.142-8.051 3.652-10.066l34.943-20.064c3.972-2.283 9.044-.911 11.326 3.063 2.283 3.973.909 9.044-3.062 11.325l-28.864 16.574 52.262 141.631c1.586 4.298-.614 9.069-4.912 10.655-.948.35-1.918.515-2.872.515z" fill="#e9e5f6"/></g><g><path d="m235.297 277.966 10.355-5.979c.744-6.476-.497-13.912-3.702-19.464-3.468-6.008-8.223-8.109-12.156-6.086l-10.696 6.147z" fill="url(#SVGID_31_)"/><path d="m224.095 271.498 11.202 6.467c.743-6.475-.499-13.906-3.703-19.456-4.783-8.284-12.017-9.183-16.158-2.01-1.367 2.367-2.176 5.342-2.543 8.531z" fill="#ab2c37"/><path d="m224.095 271.498 6.165 3.559c.409-3.563-.275-7.653-2.038-10.707-2.632-4.559-6.613-5.054-8.893-1.106-.752 1.303-1.198 2.94-1.399 4.695z" fill="#fff"/></g><g><path d="m130.497 212.971c-1.229 0-2.477-.274-3.654-.853-4.112-2.022-5.807-6.994-3.786-11.105l46.401-94.37c2.023-4.113 6.996-5.805 11.105-3.785 4.112 2.022 5.807 6.994 3.786 11.105l-46.401 94.37c-1.443 2.934-4.388 4.638-7.451 4.638z" fill="#e9e5f6"/></g><g><path d="m133.321 219.102 10.355-5.979c.744-6.476-.497-13.912-3.702-19.464-3.468-6.008-8.223-8.109-12.156-6.086l-10.696 6.147z" fill="url(#SVGID_32_)"/><path d="m122.119 212.635 11.202 6.467c.743-6.475-.499-13.906-3.703-19.457-4.783-8.283-12.017-9.183-16.158-2.01-1.367 2.367-2.176 5.343-2.543 8.531z" fill="#ab2c37"/><path d="m122.119 212.635 6.165 3.559c.409-3.563-.275-7.653-2.038-10.707-2.632-4.559-6.613-5.054-8.893-1.106-.752 1.303-1.198 2.94-1.399 4.695z" fill="#fff"/></g><g><path d="m299.868 111.69c-1.402 0-2.823-.356-4.128-1.106-3.972-2.284-5.339-7.355-3.056-11.327l54.68-95.095c2.285-3.97 7.352-5.342 11.328-3.056 3.972 2.284 5.339 7.355 3.056 11.327l-54.68 95.095c-1.535 2.668-4.328 4.162-7.2 4.162z" fill="#e9e5f6"/></g></g></svg>